# xmcd
#
# Track frame offsets: 
#        150
#        12402
#        24335
#        38417
#        52170
#        67165
#        79345
#        97940
#        110995
#        123147
#        139990
#
# Disc length: 2021 seconds
#
# Revision: 3
# Processed by: cddbd v1.4PL0 Copyright (c) Steve Scherf et al.
# Submitted via: ExactAudioCopy v0.90b4
#
DISCID=9507e30b
DTITLE=Marvin Gaye - Romantically Yours
DYEAR=1995
DGENRE=Blues
TTITLE0=More
TTITLE1=Why Did I Choose You
TTITLE2=Maria
TTITLE3=The Shadow Of Your Smile
TTITLE4=Fly Me To The Moon (In Other Words)
TTITLE5=I Won't Cry Anymore
TTITLE6=Just Like
TTITLE7=Walkin' In The Rain
TTITLE8=I Live For You
TTITLE9=Stranger In My Life
TTITLE10=Happy Go Lucky
EXTD=
EXTT0=
EXTT1=
EXTT2=
EXTT3=
EXTT4=
EXTT5=
EXTT6=
EXTT7=
EXTT8=
EXTT9=
EXTT10=
PLAYORDER=
